<svg xmlns="http://www.w3.org/2000/svg" viewBox="0 0 74.09 21.34"><defs><style>.cls-1{fill-rule:evenodd;}</style></defs><title>logo-textsvg</title><g data-name="Layer 2"><g id="Group_3" data-name="Group 3"><g id="logo"><g id="donis"><path class="cls-1" d="M11.22,7.78A5.7,5.7,0,0,0,6.78,5.86,6.35,6.35,0,0,0,2,8a7.64,7.64,0,0,0-2,5.48,8,8,0,0,0,2.08,5.61,6.3,6.3,0,0,0,4.74,2.26,5.43,5.43,0,0,0,4.4-2.2v2h4.16V.42H11.22Zm-1,8.83A3.16,3.16,0,0,1,7.8,17.77a3.36,3.36,0,0,1-2.52-1.16,4.14,4.14,0,0,1-1.09-3,4.47,4.47,0,0,1,1.06-3A3.21,3.21,0,0,1,7.78,9.37a3.12,3.12,0,0,1,2.48,1.22,4.54,4.54,0,0,1,1,3A4.34,4.34,0,0,1,10.26,16.61ZM26.38,5.86A7.7,7.7,0,0,0,20.73,8.1a7.5,7.5,0,0,0-2.25,5.51,7.44,7.44,0,0,0,2.25,5.5,7.7,7.7,0,0,0,5.65,2.23A7.7,7.7,0,0,0,32,19.11a7.47,7.47,0,0,0,2.24-5.5A7.53,7.53,0,0,0,32,8.1,7.71,7.71,0,0,0,26.38,5.86Zm2.67,10.75a3.64,3.64,0,0,1-5.33,0,4.28,4.28,0,0,1-1-3,4.32,4.32,0,0,1,1-3,3.62,3.62,0,0,1,5.33,0,4.37,4.37,0,0,1,1,3A4.33,4.33,0,0,1,29.05,16.61ZM45.35,5.86A5.82,5.82,0,0,0,41.1,7.78V6.11H36.93v15H41.1V12.75A3.58,3.58,0,0,1,42,10.08a3,3,0,0,1,2.18-.9c1.68,0,2.52,1.15,2.52,3.46v8.48H50.9V12a6.19,6.19,0,0,0-1.6-4.46A5.25,5.25,0,0,0,45.35,5.86ZM56.6,0a2.36,2.36,0,0,0-1.73.71,2.36,2.36,0,0,0-.71,1.74,2.37,2.37,0,0,0,.71,1.75,2.47,2.47,0,0,0,3.47,0A2.4,2.4,0,0,0,59,2.45,2.41,2.41,0,0,0,56.6,0ZM54.52,21.12h4.16v-15H54.52Zm18-7.84a9.92,9.92,0,0,0-1.43-.74q-.6-.24-2-.69a11.1,11.1,0,0,1-2-.78,1,1,0,0,1-.61-.92c0-.7.64-1.06,1.93-1.06a6.81,6.81,0,0,1,3.87,1.34l1.56-2.79a9.37,9.37,0,0,0-5.28-1.78,6.7,6.7,0,0,0-4.3,1.31,4.11,4.11,0,0,0-1.67,3.39,3.5,3.5,0,0,0,1.69,3.14,10.74,10.74,0,0,0,1.49.8c.44.19,1.06.41,1.89.67a7.4,7.4,0,0,1,1.89.84,1.24,1.24,0,0,1,.65,1,1,1,0,0,1-.47.85,2.29,2.29,0,0,1-1.28.32,8,8,0,0,1-5-1.81L61.63,19a10.16,10.16,0,0,0,3.25,1.77,11,11,0,0,0,3.47.6A6.28,6.28,0,0,0,72.47,20a4.38,4.38,0,0,0,1.62-3.56A3.4,3.4,0,0,0,72.54,13.28Z"/></g></g></g></g></svg>