<svg xmlns="http://www.w3.org/2000/svg" viewBox="0 0 79 12.4"><defs><style>.cls-1{fill:#a1a1a1;fill-rule:evenodd;}</style></defs><title>star</title><g data-name="Layer 2"><g id="play"><g id="_" data-name="    "><path class="cls-1" d="M12.56,4.45,8.64,3.88,6.88.32C6.81.17,6.68,0,6.5,0s-.31.17-.38.32L4.36,3.88.44,4.45c-.2,0-.44.12-.44.35a.57.57,0,0,0,.2.38L3,8l-.67,3.9a.88.88,0,0,0,0,.16c0,.2.1.39.33.39A.6.6,0,0,0,3,12.3L6.5,10.46,10,12.3a.57.57,0,0,0,.31.1c.23,0,.32-.19.32-.39a.86.86,0,0,0,0-.16L10,8,12.8,5.18A.57.57,0,0,0,13,4.8C13,4.57,12.75,4.48,12.56,4.45Zm16.5,0-3.92-.57L23.38.32C23.31.17,23.18,0,23,0s-.31.17-.38.32L20.86,3.88l-3.92.57c-.2,0-.44.12-.44.35a.6.6,0,0,0,.19.38L19.54,8l-.67,3.9a.88.88,0,0,0,0,.16c0,.2.1.39.33.39a.6.6,0,0,0,.31-.1L23,10.46l3.51,1.84a.57.57,0,0,0,.31.1c.23,0,.32-.19.32-.39a.86.86,0,0,0,0-.16L26.46,8,29.3,5.18a.57.57,0,0,0,.2-.38C29.5,4.57,29.25,4.48,29.06,4.45Zm16.5,0-3.92-.57L39.88.32C39.81.17,39.68,0,39.5,0s-.31.17-.38.32L37.36,3.88l-3.92.57c-.2,0-.44.12-.44.35a.6.6,0,0,0,.19.38L36,8l-.67,3.9a.88.88,0,0,0,0,.16c0,.2.1.39.33.39a.6.6,0,0,0,.31-.1l3.51-1.84L43,12.3a.57.57,0,0,0,.31.1c.23,0,.32-.19.32-.39a.86.86,0,0,0,0-.16L43,8,45.8,5.18A.57.57,0,0,0,46,4.8C46,4.57,45.75,4.48,45.56,4.45Zm16.5,0-3.92-.57L56.38.32C56.31.17,56.18,0,56,0s-.31.17-.38.32L53.86,3.88l-3.92.57c-.2,0-.44.12-.44.35a.6.6,0,0,0,.19.38L52.54,8l-.67,3.9a.88.88,0,0,0,0,.16c0,.2.1.39.33.39a.6.6,0,0,0,.31-.1L56,10.46l3.51,1.84a.57.57,0,0,0,.31.1c.23,0,.32-.19.32-.39a.86.86,0,0,0,0-.16L59.46,8,62.3,5.18a.57.57,0,0,0,.2-.38C62.5,4.57,62.25,4.48,62.06,4.45ZM79,4.8c0-.23-.25-.32-.44-.35l-3.92-.57L72.88.32C72.81.17,72.68,0,72.5,0s-.31.17-.38.32L70.36,3.88l-3.92.57c-.2,0-.44.12-.44.35a.6.6,0,0,0,.19.38L69,8l-.67,3.9a.88.88,0,0,0,0,.16c0,.2.1.39.33.39a.6.6,0,0,0,.31-.1l3.51-1.84L76,12.3a.57.57,0,0,0,.31.1c.23,0,.32-.19.32-.39a.86.86,0,0,0,0-.16L76,8,78.8,5.18A.57.57,0,0,0,79,4.8Z"/></g></g></g></svg>