<!-- Generated by IcoMoon.io -->
<svg version="1.1" xmlns="http://www.w3.org/2000/svg" width="20" height="20" viewBox="0 0 20 20">
<title>artist</title>
<path d="M15.75 8l-3.74-3.75c-0.006-0.083-0.010-0.18-0.010-0.277 0-2.204 1.786-3.99 3.99-3.99 1.111 0 2.116 0.454 2.839 1.187l0 0c0.73 0.725 1.182 1.729 1.182 2.839 0 2.209-1.791 4-4 4-0.092 0-0.183-0.003-0.274-0.009l0.012 0.001zM1.85 15.3l9.2-9.19 2.83 2.83-9.2 9.2-2.82-2.84zM0.45 18.13l2.11-2.12 1.42 1.42-2.12 2.12-1.42-1.42zM10 15l2-2v7h-2v-5z"></path>
</svg>