<svg xmlns="http://www.w3.org/2000/svg" viewBox="0 0 16 16"><defs><style>.cls-1{isolation:isolate;}.cls-2{fill-rule:evenodd;}</style></defs><g data-name="Layer 2"><g id="Stats_2" class="cls-1"><g id="Stats_2-2" data-name="Stats_2"><path class="cls-2" d="M15.67,0a.33.33,0,0,0-.33.33V1.94L12.89,3.22a1.85,1.85,0,1,0-2.5,2.67L9.57,7.72a1.84,1.84,0,0,0-.44-.06A1.86,1.86,0,0,0,7.27,9.52a1.84,1.84,0,0,0,.06.44l-1.83.81a1.86,1.86,0,1,0-2.61,2.55l-1,2H.33a.33.33,0,0,0,0,.65H14.77A1.23,1.23,0,0,0,16,14.77V.33A.33.33,0,0,0,15.67,0ZM10.22,4.35a1.2,1.2,0,0,1,2.27-.56h0a1.19,1.19,0,0,1,.14.55,1.21,1.21,0,1,1-2.41,0Zm-1.09,4A1.2,1.2,0,1,1,7.93,9.52,1.21,1.21,0,0,1,9.13,8.32Zm-6.37,3.5a1.22,1.22,0,1,1,.69,1.09h0A1.2,1.2,0,0,1,2.76,11.82Zm12.59,3a.57.57,0,0,1-.57.57H2.65l.82-1.74a1.83,1.83,0,0,0,.48.07,1.86,1.86,0,0,0,1.86-1.86,1.84,1.84,0,0,0-.06-.44l1.83-.81A1.86,1.86,0,1,0,10.17,8L11,6.15a1.84,1.84,0,0,0,.44.06,1.86,1.86,0,0,0,1.86-1.86,1.83,1.83,0,0,0-.09-.55l2.15-1.12Z"/></g></g></g></svg>