<!-- Generated by IcoMoon.io -->
<svg version="1.1" xmlns="http://www.w3.org/2000/svg" width="32" height="32" viewBox="0 0 32 32"><style>.color-primary{fill: #a27bf9;}</style>
<title>dot-nav-horizontal</title>
<path class="color-primary" d="M5.681 12.808c-1.763 0-3.192 1.429-3.192 3.192s1.429 3.192 3.192 3.192c1.763 0 3.192-1.429 3.192-3.192v0c0-1.763-1.429-3.192-3.192-3.192v0zM16.322 12.808c-1.763 0-3.192 1.429-3.192 3.192s1.429 3.192 3.192 3.192c1.763 0 3.192-1.429 3.192-3.192v0c0-1.763-1.429-3.192-3.192-3.192v0zM26.963 12.808c-1.763 0-3.192 1.429-3.192 3.192s1.429 3.192 3.192 3.192c1.763 0 3.192-1.429 3.192-3.192v0c0-1.763-1.429-3.192-3.192-3.192v0z"></path>
</svg>
