<svg xmlns="http://www.w3.org/2000/svg" viewBox="0 0 30.01 20.01"><defs><style>.cls-1{isolation:isolate;}.cls-2{fill-rule:evenodd;}</style></defs><title>forward-2</title><g data-name="Layer 2"><g id="next" class="cls-1"><g id="next-2" data-name="next"><path class="cls-2" d="M29.5,9.13l-16-9-.1,0-.12,0a1,1,0,0,0-.24,0H13l-.12,0-.19,0-.17.08a1,1,0,0,0-.17.12l-.1.11a1,1,0,0,0-.12.13.92.92,0,0,0,0,.09l0,.07A1,1,0,0,0,12,1h0V6L1.52.13l-.1,0L1.3.06a1,1,0,0,0-.24,0H1L.88,0,.68.06.51.15A1,1,0,0,0,.34.26L.24.37A1,1,0,0,0,.12.5a.91.91,0,0,0,0,.09l0,.07A1,1,0,0,0,0,1H0V19a1,1,0,0,0,.06.29,1,1,0,0,0,0,.1s0,.06,0,.09a1,1,0,0,0,.11.12l.1.11a1,1,0,0,0,.19.13l.14.06A1,1,0,0,0,.93,20H1a1,1,0,0,0,.51-.12l8.94-5a1,1,0,0,0,.38-1.37,1,1,0,0,0-1.41-.37L2,17.3V2.71L12,8.34V19s0,0,0,0a1,1,0,0,0,.07.35v0a1,1,0,0,0,0,.13,1,1,0,0,0,1.25.41h0l.08,0,12-7a1,1,0,0,0,.36-1.37,1,1,0,0,0-1.36-.37L14,17.27V2.71l14.48,8.15a1,1,0,0,0,1.4-.37A1,1,0,0,0,29.5,9.13Z"/></g></g></g></svg>