<svg xmlns="http://www.w3.org/2000/svg" viewBox="0 0 17 17.01"><defs><style>.cls-1{isolation:isolate;}.cls-2{fill-rule:evenodd;}</style></defs><g data-name="Layer 2"><g id="icon_genres" data-name="icon genres" class="cls-1"><g id="icon_genres-2" data-name="icon genres"><path class="cls-2" d="M17,8.5a.39.39,0,0,0-.17-.32l-1.55-1,1.55-1a.39.39,0,0,0,0-.64L8.71.07a.38.38,0,0,0-.43,0L.17,5.48a.39.39,0,0,0,0,.64l1.55,1-1.55,1a.39.39,0,0,0,0,.64l1.55,1-1.55,1a.39.39,0,0,0,0,.64l8.11,5.41a.39.39,0,0,0,.43,0l8.11-5.41a.39.39,0,0,0,0-.64l-1.55-1,1.55-1A.39.39,0,0,0,17,8.5ZM1.08,5.8,8.5.85,15.92,5.8,8.5,10.74,2.63,6.83h0Zm14.83,5.41L8.5,16.16,1.08,11.21l1.33-.89,5.87,3.92a.39.39,0,0,0,.43,0l5.87-3.92ZM8.5,13.45,2.63,9.53h0l-1.54-1,1.33-.89,5.87,3.92a.39.39,0,0,0,.43,0l5.87-3.92,1.33.89Z"/></g></g></g></svg>