<svg xmlns="http://www.w3.org/2000/svg" viewBox="0 0 50 50"><defs><style>.cls-1{isolation:isolate;}.cls-2{fill-rule:evenodd;}</style></defs><title>icon-pause-alt</title><g id="Layer_2" data-name="Layer 2"><g id="Ellipse_834" data-name="Ellipse 834" class="cls-1"><g id="Ellipse_834-2" data-name="Ellipse 834"><path d="M25,2A23,23,0,1,1,2,25,23,23,0,0,1,25,2m0-2A25,25,0,1,0,50,25,25,25,0,0,0,25,0Z"/></g></g><g id="play_copy" data-name="play copy" class="cls-1"><g id="play_copy-2" data-name="play copy"><path class="cls-2" d="M19.93,16A.94.94,0,0,0,19,17V34a.93.93,0,1,0,1.86,0V17A.94.94,0,0,0,19.93,16Zm11.14,0a.94.94,0,0,0-.93,1V34A.93.93,0,1,0,32,34V17A.94.94,0,0,0,31.07,16Z"/></g></g></g></svg>