<svg xmlns="http://www.w3.org/2000/svg" viewBox="0 0 12.29 16.21"><defs><style>.cls-1{isolation:isolate;}.cls-2{fill-rule:evenodd;}</style></defs><g data-name="Layer 2"><g id="new_music_icon" data-name="new music icon" class="cls-1"><g id="new_music_icon-2" data-name="new music icon"><path class="cls-2" d="M6.37,16.21l.12,0H6.37ZM6.58.08h0L6.37,0V0h0a.4.4,0,0,0-.4.4V10.5a3.4,3.4,0,1,0,.81,2.91.39.39,0,0,0,.07-.21V1.12a7.6,7.6,0,0,1,3.26,2.74.39.39,0,0,0-.17,0,.4.4,0,1,0,.55.15l0,0,.63-.31A8.51,8.51,0,0,0,6.58.08ZM3.37,15.36a2.56,2.56,0,1,1,2.56-2.56A2.56,2.56,0,0,1,3.37,15.36ZM11.31,4.14V7c0,.23.08.46.09.7h.89A8.41,8.41,0,0,0,11.31,4.14Z"/></g></g></g></svg>