<svg xmlns="http://www.w3.org/2000/svg" viewBox="0 0 16 15"><defs><style>.cls-1{isolation:isolate;}.cls-2{fill-rule:evenodd;}</style></defs><g data-name="Layer 2"><g id="overviews_icon" data-name="overviews icon" class="cls-1"><g id="overviews_icon-2" data-name="overviews icon"><path class="cls-2" d="M16,1.4A1.43,1.43,0,0,0,14.55,0l-8,.7a1.43,1.43,0,0,0-1.45,1.4v7h0v2.78h0a2,2,0,0,1,0,.38,2.14,2.14,0,0,1-2.19,2.09,2.1,2.1,0,1,1,0-4.19,2.25,2.25,0,0,1,.72.13v-.13h0a.34.34,0,0,0,0-.69h0a.33.33,0,0,0-.18.06,2.75,2.75,0,0,0-.54-.06A2.85,2.85,0,0,0,0,12.22,2.85,2.85,0,0,0,2.91,15a2.85,2.85,0,0,0,2.91-2.78s0,0,0-.06h0V2.09a.71.71,0,0,1,.73-.7l8-.7a.71.71,0,0,1,.73.7v7h0v2.78h0a2,2,0,0,1,0,.36,2.19,2.19,0,1,1-2.19-2.08,2.27,2.27,0,0,1,.72.12V9.44h0a.36.36,0,0,0,.36-.36h0a.36.36,0,0,0-.36-.36h0a.35.35,0,0,0-.18.06,2.72,2.72,0,0,0-.52-.06A2.8,2.8,0,1,0,16,11.52h0Z"/></g></g></g></svg>