<svg xmlns="http://www.w3.org/2000/svg" viewBox="0 0 50 50"><defs><style>.cls-1{fill-rule:evenodd;}</style></defs><g data-name="Layer 2"><g id="play"><g id="Ellipse_834" data-name="Ellipse 834"><path d="M25,2A23,23,0,1,1,2,25,23,23,0,0,1,25,2m0-2A25,25,0,1,0,50,25,25,25,0,0,0,25,0Z"/></g><g id="play-2" data-name="play"><path class="cls-1" d="M36.5,24.15l-16-9-.14,0h0A.84.84,0,0,0,20,15h-.09a.88.88,0,0,0-.28.06l-.11,0a1.07,1.07,0,0,0-.22.15l-.08.09a.74.74,0,0,0-.12.13,2697278881056,2697278881056,0,0,1-.06.18A.8.8,0,0,0,19,16V34a0,0,0,0,0,0,0,.75.75,0,0,0,.06.29s0,.07,0,.09,0,.06,0,.09a.89.89,0,0,0,.13.14l.07.09a1,1,0,0,0,.22.14.45.45,0,0,0,.12.06.86.86,0,0,0,.23,0L20,35h.06l.15,0a1.06,1.06,0,0,0,.25-.09h0l12-7a1,1,0,0,0,.37-1.37,1,1,0,0,0-1.36-.37L21,32.25V17.71l14.48,8.18a1,1,0,0,0,1.4-.37A1,1,0,0,0,36.5,24.15Z"/></g></g></g></svg>