<svg xmlns="http://www.w3.org/2000/svg" viewBox="0 0 18.02 20"><defs><style>.cls-1{isolation:isolate;}.cls-2{fill-rule:evenodd;}</style></defs><title>play-2</title><g data-name="Layer 2"><g id="play" class="cls-1"><g id="play-2" data-name="play"><path class="cls-2" d="M17.5,9.15l-16-9a1,1,0,0,0-.14,0h0A1,1,0,0,0,1,0H.94A1,1,0,0,0,.66.07L.55.12A1,1,0,0,0,.33.27L.25.36A1,1,0,0,0,.13.49.92.92,0,0,0,.1.58l0,.09A1,1,0,0,0,0,1V19a1,1,0,0,0,.06.3s0,.06,0,.09,0,.06,0,.09a1,1,0,0,0,.13.14l.07.09a1,1,0,0,0,.22.15l.11.06a1,1,0,0,0,.23,0L1,20h.06l.15,0a1,1,0,0,0,.25-.09h0l12-7a1,1,0,0,0,.36-1.37,1,1,0,0,0-1.36-.37L2,17.25V2.71l14.48,8.18a1,1,0,0,0,1.4-.37A1,1,0,0,0,17.5,9.15Z"/></g></g></g></svg>