<svg xmlns="http://www.w3.org/2000/svg" viewBox="0 0 30.01 20.01"><defs><style>.cls-1{isolation:isolate;}.cls-2{fill-rule:evenodd;}</style></defs><title>rewind-2</title><g data-name="Layer 2"><g id="prev" class="cls-1"><g id="prev-2" data-name="prev"><path class="cls-2" d="M30,1a1,1,0,0,0-.07-.33l0-.07a.92.92,0,0,0,0-.09,1,1,0,0,0-.12-.13l-.1-.11A1,1,0,0,0,29.5.15L29.33.06l-.19,0L29,0H29a1,1,0,0,0-.24,0l-.12,0-.1,0L18,6V1h0a1,1,0,0,0-.07-.33l0-.07a.91.91,0,0,0,0-.09,1,1,0,0,0-.12-.13l-.1-.11A1,1,0,0,0,17.5.15L17.33.06l-.19,0L17,0H17a1,1,0,0,0-.24,0l-.12,0-.1,0-16,9A1,1,0,0,0,.14,10.5a1,1,0,0,0,1.4.37L16,2.71V17.27L5.48,11.13a1,1,0,0,0-1.36.37,1,1,0,0,0,.36,1.37l12,7,.08,0h0a1,1,0,0,0,1.25-.4,1,1,0,0,0,0-.12v0A1,1,0,0,0,18,19s0,0,0,0V8.34L28,2.71V17.3l-7.45-4.18a1,1,0,0,0-1.41.37,1,1,0,0,0,.38,1.37l8.94,5A1,1,0,0,0,29,20h.1a1,1,0,0,0,.26-.05l.14-.07a1,1,0,0,0,.19-.13l.1-.11a1,1,0,0,0,.11-.12s0-.06,0-.09a1,1,0,0,0,0-.1A1,1,0,0,0,30,19s0,0,0,0V1Z"/></g></g></g></svg>